<?xml version="1.0" standalone="no"?>
<!DOCTYPE svg PUBLIC "-//W3C//DTD SVG 20010904//EN"
 "http://www.w3.org/TR/2001/REC-SVG-20010904/DTD/svg10.dtd">
<svg version="1.0" xmlns="http://www.w3.org/2000/svg"
 width="897.000000pt" height="897.000000pt" viewBox="0 0 897.000000 897.000000"
 preserveAspectRatio="xMidYMid meet">
<metadata>
Created by potrace 1.11, written by Peter Selinger 2001-2013
</metadata>
<g transform="translate(0.000000,897.000000) scale(0.100000,-0.100000)"
fill="#000000" stroke="none">
<path d="M4499 8537 c-20 -8 -70 -35 -113 -60 -42 -26 -78 -47 -81 -47 -3 0
-191 -108 -225 -130 -8 -5 -51 -30 -95 -55 -44 -25 -99 -56 -122 -70 -23 -13
-102 -59 -175 -101 -420 -242 -553 -319 -838 -484 -173 -101 -328 -190 -345
-200 -92 -52 -517 -297 -578 -333 -40 -24 -79 -46 -87 -50 -8 -4 -36 -20 -61
-35 -25 -15 -112 -65 -193 -112 -81 -47 -161 -93 -178 -103 -18 -10 -95 -55
-172 -99 -78 -44 -154 -92 -169 -107 -34 -30 -61 -81 -72 -131 -4 -19 -8 -550
-7 -1178 0 -877 3 -1154 12 -1188 14 -48 75 -125 118 -147 15 -7 72 -40 127
-72 190 -111 337 -195 340 -195 2 0 40 -22 85 -50 45 -27 83 -50 85 -50 2 0
49 -27 105 -60 56 -33 103 -60 105 -60 1 0 34 -18 71 -40 77 -45 112 -50 140
-19 18 20 19 56 19 1192 l0 1172 23 45 c12 25 32 57 44 71 19 22 193 128 428
261 25 14 203 117 395 228 193 111 364 210 380 220 47 27 415 239 579 334 82
47 151 86 154 86 3 0 13 6 21 14 9 7 39 26 66 41 28 15 95 53 150 85 55 32
123 70 150 85 28 16 219 125 425 243 206 118 400 229 430 245 30 17 66 38 80
47 14 9 59 36 101 58 85 47 94 55 104 95 6 23 2 33 -30 62 -20 19 -40 35 -45
35 -4 0 -70 37 -146 81 -77 45 -245 142 -374 217 -129 74 -248 143 -265 153
-158 95 -200 113 -265 116 -37 2 -80 -3 -101 -10z"/>
<path d="M5883 7708 c-32 -16 -65 -33 -73 -38 -17 -11 -114 -67 -145 -84 -11
-6 -193 -110 -404 -231 -318 -182 -386 -225 -396 -249 -17 -40 -4 -65 48 -98
48 -30 595 -346 677 -391 30 -16 60 -33 65 -37 6 -4 26 -17 45 -27 19 -11 150
-87 290 -168 270 -157 298 -173 358 -206 20 -12 74 -43 120 -70 45 -27 85 -49
88 -49 3 0 18 -8 32 -19 15 -10 50 -31 77 -46 216 -119 248 -144 286 -222 l24
-48 0 -1982 c0 -1932 1 -1982 19 -2002 36 -39 64 -28 339 130 144 83 278 160
297 171 19 11 67 39 105 61 39 23 87 51 107 62 126 68 241 140 266 165 16 16
39 50 52 77 l23 48 0 1980 0 1980 -22 51 c-12 28 -37 65 -54 81 -27 26 -179
123 -192 123 -2 0 -45 25 -95 55 -50 30 -93 55 -96 55 -2 0 -21 11 -42 23 -20
13 -57 35 -82 49 -25 14 -162 93 -305 175 -143 83 -285 164 -315 182 -30 17
-62 36 -70 41 -16 10 -271 157 -356 205 -29 17 -144 82 -256 147 -112 64 -214
119 -228 124 -59 17 -128 11 -187 -18z"/>
<path d="M4509 6851 c-14 -5 -127 -67 -250 -138 -123 -71 -253 -146 -289 -167
-36 -20 -72 -41 -80 -46 -16 -11 -102 -60 -165 -95 -22 -13 -166 -96 -320
-185 -154 -90 -300 -174 -325 -188 -25 -14 -79 -45 -120 -70 -41 -25 -93 -54
-115 -67 -187 -102 -302 -174 -332 -209 -65 -76 -62 -25 -60 -1271 l2 -1130
22 -41 c36 -67 70 -93 279 -213 110 -63 279 -161 377 -218 98 -56 180 -103
183 -103 3 0 17 -9 32 -19 15 -10 135 -81 267 -156 132 -76 281 -162 330 -190
342 -200 545 -314 566 -319 99 -22 143 -12 268 61 53 30 116 67 141 81 25 14
155 89 290 167 135 78 304 176 375 217 72 41 173 100 225 130 52 30 170 99
263 152 612 352 564 322 573 359 9 42 -13 66 -112 123 -49 28 -190 109 -313
180 l-224 129 -75 2 c-85 2 -87 1 -272 -107 -183 -107 -430 -250 -487 -281
-29 -16 -82 -47 -119 -69 -36 -22 -67 -40 -69 -40 -2 0 -65 -37 -141 -81 -154
-91 -197 -108 -265 -104 -59 4 -94 20 -284 132 -38 22 -86 50 -105 60 -33 19
-321 186 -715 414 -94 54 -179 105 -189 112 -18 13 -19 44 -19 776 0 440 4
766 9 770 8 8 79 50 244 144 19 11 49 28 65 38 17 10 41 24 55 32 27 14 341
195 585 337 292 169 298 172 363 171 62 -1 110 -21 281 -121 95 -55 174 -100
177 -100 3 0 18 -8 32 -19 15 -10 47 -29 72 -43 25 -14 184 -105 354 -203 170
-98 326 -184 346 -191 21 -7 62 -11 95 -8 58 4 69 9 250 114 17 9 77 44 135
77 128 74 267 155 297 174 28 17 41 73 22 95 -7 8 -65 46 -128 83 -116 68
-745 432 -811 469 -19 10 -107 61 -195 112 -185 107 -220 127 -258 149 -16 9
-36 21 -46 26 -31 18 -222 130 -275 160 -277 159 -256 149 -326 152 -36 1 -77
-1 -91 -6z"/>
<path d="M1004 3675 c-15 -23 -16 -85 -16 -623 -1 -589 0 -598 21 -642 26 -55
75 -108 127 -136 22 -11 113 -64 204 -116 91 -53 181 -105 200 -116 101 -58
619 -357 645 -373 17 -10 41 -24 55 -32 14 -7 160 -91 325 -187 165 -95 388
-224 495 -285 107 -62 211 -122 230 -133 19 -12 62 -36 95 -55 84 -48 533
-308 695 -402 74 -43 164 -95 200 -115 36 -21 85 -49 110 -64 95 -56 133 -70
195 -69 55 1 125 24 185 63 20 13 163 96 220 128 42 24 434 250 635 367 96 56
764 441 930 536 125 71 167 107 196 167 l24 47 0 606 c0 592 0 607 -20 629
-28 31 -73 22 -165 -32 -87 -52 -384 -224 -450 -261 -25 -14 -85 -48 -135 -77
-49 -29 -178 -103 -285 -165 -107 -62 -235 -136 -285 -165 -49 -29 -106 -61
-125 -72 -19 -11 -150 -87 -290 -168 -140 -81 -277 -160 -305 -176 -44 -25
-60 -28 -131 -29 -76 0 -84 2 -141 38 -34 20 -64 37 -67 37 -4 0 -25 11 -47
26 -22 14 -56 34 -75 45 -20 11 -104 59 -187 108 -84 48 -291 168 -462 266
-170 98 -345 199 -388 224 -79 47 -112 65 -203 117 -59 34 -382 221 -404 234
-8 5 -87 51 -175 101 -202 116 -196 112 -345 199 -69 40 -210 122 -315 182
-104 60 -197 113 -205 118 -17 11 -107 63 -160 93 -19 10 -101 57 -181 103
-161 93 -197 102 -225 59z"/>
</g>
</svg>
