<?xml version="1.0" encoding="UTF-8" standalone="no"?>
<svg width="140px" height="140px" viewBox="0 0 140 140" version="1.1" xmlns="http://www.w3.org/2000/svg" xmlns:xlink="http://www.w3.org/1999/xlink">
    <!-- Generator: Sketch 3.6.1 (26313) - http://www.bohemiancoding.com/sketch -->
    <title>benefit-cost</title>
    <desc>Created with Sketch.</desc>
    <defs>
        <linearGradient x1="50%" y1="0%" x2="50%" y2="100%" id="linearGradient-1">
            <stop stop-color="#76CAF8" offset="0%"></stop>
            <stop stop-color="#77DCF8" offset="100%"></stop>
        </linearGradient>
    </defs>
    <g id="illustrations" stroke="none" stroke-width="1" fill="none" fill-rule="evenodd">
        <g id="benefit-cost">
            <g id="illustration" transform="translate(8.000000, 8.000000)">
                <path d="M65,44.3271763 L65,43.0016655 C65,41.3390201 63.6568542,40 62,40 C60.3465171,40 59,41.3438914 59,43.0016655 L59,44.241751 C53.3931154,45.2846703 50.2974828,49.5667834 50.2974828,54.4378698 C50.2974828,67.6449704 67.6704805,62.816568 67.6704805,69.4911243 C67.6704805,72.1183432 65.826087,74.035503 62.0778032,74.035503 C59.3409611,74.035503 56.3661327,72.7573964 54.1647597,70.9822485 C53.7482838,70.6272189 53.2128146,70.4852071 52.7368421,70.4852071 C51.3089245,70.4852071 50,71.9053254 50,73.6804734 C50,74.3905325 50.2379863,75.0295858 50.5949657,75.5266272 C52.3317223,77.8720787 55.7537123,79.2538137 59,79.7683942 L59,80.9983345 C59,82.6609799 60.3431458,84 62,84 C63.6534829,84 65,82.6561086 65,80.9983345 L65,79.7106453 C70.7175028,78.6017184 73.798627,74.4223185 73.798627,69.2071006 C73.798627,55.5739645 56.4851259,60.1183432 56.4851259,54.0828402 C56.4851259,51.739645 58.5080092,49.8934911 61.7208238,49.8934911 C64.2791762,49.8934911 66.7185355,50.816568 68.5629291,52.3076923 C68.979405,52.591716 69.4553776,52.7337278 69.8718535,52.7337278 C71.2402746,52.7337278 72.4302059,51.4556213 72.4302059,49.8224852 C72.4302059,49.183432 72.2517162,48.6153846 71.8947368,48.1183432 C70.4779865,46.1713447 67.8220776,44.8898369 65,44.3271763 Z M12,62 C12,34.3857625 34.3796909,12 62,12 C89.6142375,12 112,34.3796909 112,62 C112,89.6142375 89.6203091,112 62,112 C34.3857625,112 12,89.6203091 12,62 Z M16,62 C16,36.5949015 36.5893156,16 62,16 C87.4050985,16 108,36.5893156 108,62 C108,87.4050985 87.4106844,108 62,108 C36.5949015,108 16,87.4106844 16,62 Z M20,62 C20,38.8040405 38.7989404,20 62,20 C85.1959595,20 104,38.7989404 104,62 C104,85.1959595 85.2010596,104 62,104 C38.8040405,104 20,85.2010596 20,62 Z" id="background" fill="url(#linearGradient-1)"></path>
                <path d="M22,6 L22,2.4912653 C22,1.66254437 21.3284271,1 20.5,1 C19.6657972,1 19,1.66766222 19,2.4912653 L19,6 L15.4912653,6 C14.6625444,6 14,6.67157288 14,7.5 C14,8.33420277 14.6676622,9 15.4912653,9 L19,9 L19,12.5087347 C19,13.3374556 19.6715729,14 20.5,14 C21.3342028,14 22,13.3323378 22,12.5087347 L22,9 L25.5087347,9 C26.3374556,9 27,8.32842712 27,7.5 C27,6.66579723 26.3323378,6 25.5087347,6 L22,6 Z" id="cross" fill="#76CAF8" transform="translate(20.500000, 7.500000) rotate(-8.000000) translate(-20.500000, -7.500000) "></path>
                <path d="M125.46,94.9 C125.46,94.26 124.9,93.84 124.36,93.84 C123.94,93.84 123.46,94.14 122.9,94.14 C121.86,94.14 121.36,93.42 120.16,93.42 C119.84,93.42 119.44,93.48 119.16,93.58 C119.92,93.08 120.52,92.24 120.52,91.2 C120.52,91 120.48,90.8 120.46,90.62 L122.22,90.62 C122.6,90.62 122.9,90.32 122.9,89.94 C122.9,89.52 122.6,89.22 122.22,89.22 L119.86,89.22 C119.32,88.42 118.64,87.74 118.64,86.56 C118.64,85.26 119.72,84.42 121.02,84.42 C121.92,84.42 122.4,84.98 123.14,85.42 C123.3,85.54 123.52,85.6 123.72,85.6 C124.28,85.6 124.78,85.2 124.78,84.6 C124.78,84.44 124.74,84.3 124.68,84.16 C124.1,83.1 122.46,82.46 120.76,82.46 C118.36,82.46 116.04,84.12 116.04,86.52 C116.04,87.66 116.62,88.48 117.2,89.22 L116.12,89.22 C115.74,89.22 115.42,89.52 115.42,89.9 C115.42,90.32 115.74,90.62 116.12,90.62 L118.14,90.62 C118.3,90.98 118.4,91.36 118.4,91.76 C118.4,92.64 117.76,93.48 116.64,94.16 C116.3,94.36 116.14,94.7 116.14,95.02 C116.14,95.52 116.54,95.92 117.06,95.92 C117.2,95.92 117.34,95.9 117.48,95.84 C118.08,95.56 118.7,95.36 119.2,95.36 C120.52,95.36 121.04,96.26 122.8,96.26 C124.14,96.26 125.46,95.86 125.46,94.9 L125.46,94.9 Z" id="£" fill="#76CAF8"></path>
                <path d="M9.72,103.44 C6.5,103.44 3.86,105.32 3,108.24 L2.48,108.24 C2.14,108.24 1.84,108.54 1.84,108.88 C1.84,109.28 2.14,109.56 2.48,109.56 L2.74,109.56 C2.72,109.82 2.72,110.08 2.72,110.34 C2.72,110.6 2.72,110.82 2.74,111.06 L2.48,111.06 C2.14,111.06 1.84,111.36 1.84,111.7 C1.84,112.1 2.14,112.4 2.48,112.4 L3,112.4 C3.84,115.34 6.48,117.24 9.72,117.24 C11.9,117.24 13.4,116.32 14.42,115.16 C14.6,114.96 14.68,114.7 14.68,114.46 C14.68,113.88 14.2,113.38 13.58,113.38 C13.26,113.38 12.92,113.52 12.7,113.76 C11.92,114.64 10.82,115.12 9.72,115.12 C7.82,115.12 6.28,114.04 5.58,112.4 L10.42,112.4 C10.76,112.4 11.06,112.1 11.06,111.74 C11.06,111.36 10.76,111.06 10.42,111.06 L5.22,111.06 C5.2,110.82 5.18,110.6 5.18,110.34 C5.18,110.08 5.18,109.82 5.22,109.56 L10.42,109.56 C10.76,109.56 11.06,109.28 11.06,108.92 C11.06,108.54 10.76,108.24 10.42,108.24 L5.6,108.24 C6.3,106.62 7.84,105.56 9.72,105.56 C10.82,105.56 11.92,106.08 12.7,106.94 C12.92,107.2 13.24,107.32 13.54,107.32 C14.18,107.32 14.68,106.84 14.68,106.22 C14.68,105.98 14.6,105.72 14.42,105.52 C13.4,104.36 11.9,103.44 9.72,103.44 L9.72,103.44 Z" id="€" fill="#76CAF8" transform="translate(8.690000, 110.340000) rotate(-15.000000) translate(-8.690000, -110.340000) "></path>
            </g>
        </g>
    </g>
</svg>