<?xml version="1.0" encoding="UTF-8" standalone="no"?>
<svg width="140px" height="140px" viewBox="0 0 140 140" version="1.1" xmlns="http://www.w3.org/2000/svg" xmlns:xlink="http://www.w3.org/1999/xlink">
    <!-- Generator: Sketch 3.6.1 (26313) - http://www.bohemiancoding.com/sketch -->
    <title>benefit-time</title>
    <desc>Created with Sketch.</desc>
    <defs>
        <linearGradient x1="50%" y1="0%" x2="50%" y2="100%" id="linearGradient-1">
            <stop stop-color="#FFDF73" offset="0%"></stop>
            <stop stop-color="#FFCC73" offset="100%"></stop>
        </linearGradient>
    </defs>
    <g id="illustrations" stroke="none" stroke-width="1" fill="none" fill-rule="evenodd">
        <g id="benefit-time">
            <g id="illustration" transform="translate(6.000000, 10.000000)">
                <path d="M2.8688215,95.7816506 C2.89363863,93.5672507 4.25726464,92.941194 5.93685241,94.4027072 L13.9024349,101.334053 C15.5720445,102.786883 15.2401871,104.569092 13.1560083,105.316592 L6.48953656,107.707554 C4.40768697,108.45422 2.74001854,107.27457 2.7649498,105.049986 L2.8688215,95.7816506 Z" id="Rectangle-363" stroke="#FFDE73" stroke-width="3" transform="translate(8.865256, 100.771960) rotate(-280.000000) translate(-8.865256, -100.771960) "></path>
                <rect id="Rectangle-363" stroke="#FFDE73" stroke-width="3" x="100" y="0" width="14" height="14" rx="34"></rect>
                <rect id="Rectangle-363" stroke="#FFDE73" stroke-width="3" x="109" y="109" width="9" height="9" rx="34"></rect>
                <g id="main" transform="translate(14.000000, 10.000000)">
                    <rect id="background" fill="url(#linearGradient-1)" x="0" y="0" width="100" height="100" rx="100"></rect>
                    <rect id="Rectangle-373" fill="#FFFFFF" transform="translate(56.000000, 61.000000) rotate(-30.000000) translate(-56.000000, -61.000000) " x="53" y="46" width="6" height="30" rx="10"></rect>
                    <rect id="Rectangle-373" fill="#FFFFFF" x="47" y="10" width="6" height="42" rx="10"></rect>
                </g>
            </g>
        </g>
    </g>
</svg>