<?xml version="1.0" encoding="UTF-8" standalone="no"?>
<svg width="140px" height="140px" viewBox="0 0 140 140" version="1.1" xmlns="http://www.w3.org/2000/svg" xmlns:xlink="http://www.w3.org/1999/xlink">
    <!-- Generator: Sketch 3.6.1 (26313) - http://www.bohemiancoding.com/sketch -->
    <title>benefit-happiness</title>
    <desc>Created with Sketch.</desc>
    <defs>
        <linearGradient x1="50%" y1="0%" x2="50%" y2="100%" id="linearGradient-1">
            <stop stop-color="#76D7A8" offset="0%"></stop>
            <stop stop-color="#76D790" offset="100%"></stop>
        </linearGradient>
    </defs>
    <g id="illustrations" stroke="none" stroke-width="1" fill="none" fill-rule="evenodd">
        <g id="benefit-happiness">
            <g id="illustration" transform="translate(7.000000, 15.000000)">
                <path d="M13,55 C13,27.3857625 35.3796909,5 63,5 C90.6142375,5 113,27.3796909 113,55 C113,82.6142375 90.6203091,105 63,105 C35.3857625,105 13,82.6203091 13,55 Z M90.5126524,65.3858127 C89.9880326,64.9027802 89.2040503,64.8727781 88.6411157,65.2988069 C88.5261709,65.3858127 77.081798,73.9993933 62.9995899,73.9993933 C48.9527495,73.9993933 37.4700616,65.3858127 37.3580642,65.2988069 C36.7951295,64.8727781 36.0111472,64.9087806 35.4865275,65.3858127 C34.9648551,65.8658451 34.846963,66.6578985 35.2094811,67.2699397 C35.5896831,67.9149832 44.6909511,83 62.9995899,83 C81.3082288,83 90.4124441,67.9149832 90.7896987,67.2699397 C91.1522168,66.6548983 91.0372721,65.8658451 90.5126524,65.3858127 Z M83,41 C83,37.1325 80.7625,34 78,34 C75.24,34 73,37.1325 73,41 C73,44.865 75.24,48 78,48 C80.7625,48 83,44.865 83,41 Z M53,41 C53,37.1336667 50.7601493,34 48,34 C45.2375175,34 43,37.1336667 43,41 C43,44.8663333 45.2375175,48 48,48 C50.7601493,48 53,44.8663333 53,41 Z" id="background" fill="url(#linearGradient-1)"></path>
                <path d="M15.6620966,13.8508997 C14.8329073,16.3071098 12.260393,17.5963423 9.91279279,16.730455 C8.48801567,16.2040521 7.4792812,15.0017114 7.08640567,13.5932552 C5.93673795,14.4318626 4.43087596,14.7046626 3.00899474,14.1802804 C0.662359801,13.3133827 -0.57032338,10.6187251 0.257900715,8.16251496 C0.375666845,7.81393721 0.532044821,7.49263946 0.713520497,7.19458022 C2.59681328,3.57543386 8.03818767,1.03132148 11.3337087,1 C13.8782294,3.18947241 16.5907115,8.74347787 15.8870106,12.7980938 C15.8503294,13.1497027 15.7779322,13.5033323 15.6620966,13.8508997" id="path30" stroke="#75D6A7" stroke-width="3" transform="translate(8.000000, 9.000000) scale(1, -1) translate(-8.000000, -9.000000) "></path>
                <path d="M104.33698,12.8508997 C105.166192,15.3071098 107.739744,16.5963423 110.086445,15.730455 C111.512228,15.2040521 112.520025,14.0017114 112.913877,12.5932552 C114.063577,13.4318626 115.569482,13.7046626 116.991403,13.1802804 C119.337139,12.3133827 120.569856,9.61872512 119.742574,7.16251496 C119.62384,6.81393721 119.468423,6.49263946 119.285976,6.19458022 C117.402631,2.57543386 111.961103,0.0313214789 108.665489,0 C106.120897,2.18947241 103.409304,7.74347787 104.113025,11.7980938 C104.149707,12.1497027 104.222106,12.5033323 104.33698,12.8508997" id="path34" stroke="#75D6A7" stroke-width="3" transform="translate(112.000000, 8.000000) scale(1, -1) translate(-112.000000, -8.000000) "></path>
                <rect id="Rectangle-363" stroke="#75D6A7" stroke-width="3" x="100" y="104" width="12" height="12" rx="34"></rect>
            </g>
        </g>
    </g>
</svg>